<?xml version="1.0" standalone="no"?>
<!DOCTYPE svg PUBLIC "-//W3C//DTD SVG 20010904//EN"
 "http://www.w3.org/TR/2001/REC-SVG-20010904/DTD/svg10.dtd">
<svg version="1.0" xmlns="http://www.w3.org/2000/svg"
 width="320.000000pt" height="320.000000pt" viewBox="0 0 320.000000 320.000000"
 preserveAspectRatio="xMidYMid meet">
<metadata>
Created by potrace 1.11, written by Peter Selinger 2001-2013
</metadata>
<g transform="translate(0.000000,320.000000) scale(0.100000,-0.100000)"
fill="#000000" stroke="none">
<path d="M0 1600 l0 -1600 1600 0 1600 0 0 1600 0 1600 -1600 0 -1600 0 0
-1600z m990 1170 l0 -90 -300 0 -300 0 0 -90 0 -90 200 0 200 0 0 -90 0 -90
-200 0 -200 0 0 -180 0 -180 -100 0 -100 0 0 450 0 450 400 0 400 0 0 -90z
m800 0 l0 -90 100 0 100 0 0 -360 0 -360 -100 0 -100 0 0 180 0 180 -200 0
-200 0 0 -180 0 -180 -100 0 -100 0 0 360 0 360 100 0 100 0 0 90 0 90 200 0
200 0 0 -90z m1000 0 l0 -90 100 0 100 0 0 -360 0 -360 95 0 95 0 0 -90 0 -90
-95 0 -95 0 0 90 0 90 -300 0 -300 0 0 90 0 90 -100 0 -100 0 0 270 0 270 100
0 100 0 0 90 0 90 200 0 200 0 0 -90z m-800 -1260 l0 -90 100 0 100 0 0 -180
0 -180 -100 0 -100 0 0 -90 0 -90 100 0 100 0 0 -180 0 -180 -100 0 -100 0 0
-90 0 -90 -200 0 -200 0 0 90 0 90 -100 0 -100 0 0 180 0 180 100 0 100 0 0
90 0 90 -100 0 -100 0 0 180 0 180 100 0 100 0 0 90 0 90 200 0 200 0 0 -90z
m800 -540 l0 -630 -100 0 -100 0 0 450 0 450 -100 0 -100 0 0 90 0 90 100 0
100 0 0 90 0 90 100 0 100 0 0 -630z m-2400 180 l0 -90 100 0 100 0 0 -90 0
-90 100 0 100 0 0 90 0 90 100 0 100 0 0 90 0 90 100 0 100 0 0 -90 0 -90
-100 0 -100 0 0 -90 0 -90 -100 0 -100 0 0 -90 0 -90 100 0 100 0 0 -90 0 -90
100 0 100 0 0 -90 0 -90 -100 0 -100 0 0 90 0 90 -100 0 -100 0 0 90 0 90
-100 0 -100 0 0 -90 0 -90 -100 0 -100 0 0 -90 0 -90 -100 0 -100 0 0 90 0 90
100 0 100 0 0 90 0 90 100 0 100 0 0 90 0 90 -100 0 -100 0 0 90 0 90 -100 0
-100 0 0 90 0 90 100 0 100 0 0 -90z"/>
<path d="M1390 2590 l0 -90 200 0 200 0 0 90 0 90 -200 0 -200 0 0 -90z"/>
<path d="M2390 2410 l0 -270 200 0 200 0 0 270 0 270 -200 0 -200 0 0 -270z"/>
<path d="M1590 1240 l0 -180 200 0 200 0 0 180 0 180 -200 0 -200 0 0 -180z"/>
<path d="M1590 700 l0 -180 200 0 200 0 0 180 0 180 -200 0 -200 0 0 -180z"/>
</g>
</svg>
